<svg width="84" height="57" viewBox="0 0 84 57" fill="none" xmlns="http://www.w3.org/2000/svg">
<g filter="url(#filter0_d_343_1905)">
<rect x="4" width="76" height="49" fill="#F3F3F3"/>
</g>
<path d="M20.2142 18.954H21.7262V20.13C21.7262 22.622 20.6062 24.806 18.1002 25.632L17.1622 24.148C19.3182 23.462 20.2142 21.81 20.2142 20.13V18.954ZM20.5922 18.954H22.0902V20.298C22.0902 21.852 22.9582 23.364 25.0022 24.008L24.0922 25.464C21.6842 24.694 20.5922 22.636 20.5922 20.298V18.954ZM25.6462 18.282H27.5082V26.108H25.6462V18.282ZM26.9902 21.432H29.2302V22.972H26.9902V21.432ZM18.8562 26.654H27.5082V31.246H25.6462V28.152H18.8562V26.654ZM39.5471 18.282H41.3111V31.246H39.5471V18.282ZM35.2771 22.706H37.4191V24.218H35.2771V22.706ZM36.9291 18.492H38.6651V30.658H36.9291V18.492ZM32.4771 20.396H33.8771V21.726C33.8771 24.638 33.0791 27.536 31.0211 28.824L29.9151 27.452C31.8191 26.262 32.4771 23.938 32.4771 21.726V20.396ZM32.8971 20.396H34.2831V21.726C34.2831 23.882 34.9271 26.066 36.8031 27.158L35.7111 28.516C33.6531 27.298 32.8971 24.582 32.8971 21.726V20.396ZM30.4051 19.584H36.1871V21.082H30.4051V19.584ZM51.376 18.282H53.224V31.246H51.376V18.282ZM52.804 23.336H55.1V24.89H52.804V23.336ZM43.004 20.2H50.55V21.684H43.004V20.2ZM46.798 22.412C48.688 22.412 50.088 23.7 50.088 25.506C50.088 27.312 48.688 28.6 46.798 28.6C44.908 28.6 43.508 27.312 43.508 25.506C43.508 23.7 44.908 22.412 46.798 22.412ZM46.798 23.924C45.916 23.924 45.286 24.512 45.286 25.506C45.286 26.5 45.916 27.088 46.798 27.088C47.68 27.088 48.31 26.5 48.31 25.506C48.31 24.512 47.68 23.924 46.798 23.924ZM45.86 18.492H47.722V20.76H45.86V18.492ZM64.8709 18.282H66.7469V31.246H64.8709V18.282ZM61.0489 19.626H62.8969C62.8969 23.588 61.5529 26.836 56.9469 29.062L55.9809 27.578C59.7049 25.786 61.0489 23.434 61.0489 19.962V19.626ZM56.6669 19.626H61.9309V21.096H56.6669V19.626Z" fill="black"/>
<defs>
<filter id="filter0_d_343_1905" x="0" y="0" width="84" height="57" filterUnits="userSpaceOnUse" color-interpolation-filters="sRGB">
<feFlood flood-opacity="0" result="BackgroundImageFix"/>
<feColorMatrix in="SourceAlpha" type="matrix" values="0 0 0 0 0 0 0 0 0 0 0 0 0 0 0 0 0 0 127 0" result="hardAlpha"/>
<feOffset dy="4"/>
<feGaussianBlur stdDeviation="2"/>
<feComposite in2="hardAlpha" operator="out"/>
<feColorMatrix type="matrix" values="0 0 0 0 0 0 0 0 0 0 0 0 0 0 0 0 0 0 0.25 0"/>
<feBlend mode="normal" in2="BackgroundImageFix" result="effect1_dropShadow_343_1905"/>
<feBlend mode="normal" in="SourceGraphic" in2="effect1_dropShadow_343_1905" result="shape"/>
</filter>
</defs>
</svg>
