<svg width="58" height="19" viewBox="0 0 58 19" fill="none" xmlns="http://www.w3.org/2000/svg">
<rect x="0.5" y="0.5" width="57" height="18" rx="4.5" fill="white" stroke="#FF0000"/>
<path d="M17.1716 5.75H18.0116V12.37H17.1716V5.75ZM12.2016 13.9H18.2816V14.58H12.2016V13.9ZM12.2016 11.76H13.0216V14.22H12.2016V11.76ZM12.9516 6.24H13.6416V7.16C13.6416 8.92 12.6416 10.46 11.1216 11.08L10.6916 10.41C12.0516 9.88 12.9516 8.56 12.9516 7.16V6.24ZM13.1016 6.24H13.7816V7.16C13.7816 8.52 14.6916 9.75 16.0416 10.24L15.6016 10.91C14.1016 10.33 13.1016 8.88 13.1016 7.16V6.24ZM20.6608 6.64H26.4808V7.33H20.6608V6.64ZM19.8008 12.83H27.9708V13.52H19.8008V12.83ZM22.9708 9.6H23.8008V13.17H22.9708V9.6ZM26.1708 6.64H26.9908V7.54C26.9908 8.66 26.9908 9.9 26.6608 11.73L25.8308 11.62C26.1708 9.89 26.1708 8.62 26.1708 7.54V6.64ZM35.12 5.74H35.95V14.78H35.12V5.74ZM35.75 9.45H37.43V10.15H35.75V9.45ZM28.95 7.18H34.28V7.86H28.95V7.18ZM31.65 8.61C32.93 8.61 33.85 9.47 33.85 10.69C33.85 11.91 32.93 12.77 31.65 12.77C30.38 12.77 29.45 11.91 29.45 10.69C29.45 9.47 30.38 8.61 31.65 8.61ZM31.65 9.3C30.83 9.3 30.24 9.87 30.24 10.69C30.24 11.5 30.83 12.08 31.65 12.08C32.47 12.08 33.06 11.5 33.06 10.69C33.06 9.87 32.47 9.3 31.65 9.3ZM31.22 5.85H32.05V7.49H31.22V5.85ZM44.7792 5.74H45.6092V14.78H44.7792V5.74ZM42.1292 6.71H42.9492C42.9492 9.33 41.7692 11.62 38.7492 13.1L38.3092 12.43C40.9192 11.17 42.1292 9.25 42.1292 6.85V6.71ZM38.7192 6.71H42.4892V7.39H38.7192V6.71Z" fill="#FF0000"/>
</svg>
