<svg width="82" height="24" viewBox="0 0 82 24" fill="none" xmlns="http://www.w3.org/2000/svg">
<path d="M29.0635 5.8H37.2815V7.27H29.0635V5.8ZM27.6355 9.846H39.3675V11.316H27.6355V9.846ZM36.1615 5.8H37.9955V6.682C37.9955 7.606 37.9955 8.782 37.6595 10.28L35.8255 10.112C36.1615 8.642 36.1615 7.592 36.1615 6.682V5.8ZM28.9375 12.198H37.9535V15.852H30.8135V17.168H28.9515V14.48H36.1055V13.64H28.9375V12.198ZM28.9515 16.72H38.2895V18.162H28.9515V16.72ZM46.0927 6.206H47.5067V7.676C47.5067 9.902 46.6947 12.058 44.6227 12.954L43.6707 11.582C45.4207 10.812 46.0927 9.188 46.0927 7.676V6.206ZM46.5407 6.206H47.9547V7.676C47.9547 9.16 48.5847 10.854 50.3907 11.666L49.5927 13.15C47.3247 12.212 46.5407 9.874 46.5407 7.676V6.206ZM51.2447 6.206H52.6447V7.676C52.6447 9.902 51.8607 12.226 49.5927 13.15L48.8087 11.666C50.6007 10.868 51.2447 9.188 51.2447 7.676V6.206ZM51.7067 6.206H53.1207V7.676C53.1207 9.244 53.7787 10.826 55.5427 11.582L54.5767 12.954C52.5047 12.072 51.7067 9.958 51.7067 7.676V6.206ZM43.7407 15.138H55.4727V16.65H43.7407V15.138ZM65.5516 5.282H67.4276V18.246H65.5516V5.282ZM61.7296 6.626H63.5776C63.5776 10.588 62.2336 13.836 57.6276 16.062L56.6616 14.578C60.3856 12.786 61.7296 10.434 61.7296 6.962V6.626ZM57.3476 6.626H62.6116V8.096H57.3476V6.626Z" fill="white"/>
<g filter="url(#filter0_b_343_1881)">
<rect x="2" width="64" height="24" rx="10" fill="#164891"/>
</g>
<path d="M16.6836 6.8H24.9016V8.27H16.6836V6.8ZM15.2556 10.846H26.9876V12.316H15.2556V10.846ZM23.7816 6.8H25.6156V7.682C25.6156 8.606 25.6156 9.782 25.2796 11.28L23.4456 11.112C23.7816 9.642 23.7816 8.592 23.7816 7.682V6.8ZM16.5576 13.198H25.5736V16.852H18.4336V18.168H16.5716V15.48H23.7256V14.64H16.5576V13.198ZM16.5716 17.72H25.9096V19.162H16.5716V17.72ZM30.4725 7.206H31.8865V8.676C31.8865 10.902 31.0745 13.058 29.0025 13.954L28.0505 12.582C29.8005 11.812 30.4725 10.188 30.4725 8.676V7.206ZM30.9205 7.206H32.3345V8.676C32.3345 10.16 32.9645 11.854 34.7705 12.666L33.9725 14.15C31.7045 13.212 30.9205 10.874 30.9205 8.676V7.206ZM35.6245 7.206H37.0245V8.676C37.0245 10.902 36.2405 13.226 33.9725 14.15L33.1885 12.666C34.9805 11.868 35.6245 10.188 35.6245 8.676V7.206ZM36.0865 7.206H37.5005V8.676C37.5005 10.244 38.1585 11.826 39.9225 12.582L38.9565 13.954C36.8845 13.072 36.0865 10.958 36.0865 8.676V7.206ZM28.1205 16.138H39.8525V17.65H28.1205V16.138ZM49.9315 6.282H51.8075V19.246H49.9315V6.282ZM46.1095 7.626H47.9575C47.9575 11.588 46.6135 14.836 42.0075 17.062L41.0415 15.578C44.7655 13.786 46.1095 11.434 46.1095 7.962V7.626ZM41.7275 7.626H46.9915V9.096H41.7275V7.626Z" fill="white"/>
<defs>
<filter id="filter0_b_343_1881" x="-2" y="-4" width="72" height="32" filterUnits="userSpaceOnUse" color-interpolation-filters="sRGB">
<feFlood flood-opacity="0" result="BackgroundImageFix"/>
<feGaussianBlur in="BackgroundImageFix" stdDeviation="2"/>
<feComposite in2="SourceAlpha" operator="in" result="effect1_backgroundBlur_343_1881"/>
<feBlend mode="normal" in="SourceGraphic" in2="effect1_backgroundBlur_343_1881" result="shape"/>
</filter>
</defs>
</svg>
